<?xml version="1.0" encoding="UTF-8" standalone="no"?>
<!-- Created with Inkscape (http://www.inkscape.org/) -->

<svg
   xmlns:dc="http://purl.org/dc/elements/1.1/"
   xmlns:cc="http://creativecommons.org/ns#"
   xmlns:rdf="http://www.w3.org/1999/02/22-rdf-syntax-ns#"
   xmlns:svg="http://www.w3.org/2000/svg"
   xmlns="http://www.w3.org/2000/svg"
   xmlns:sodipodi="http://sodipodi.sourceforge.net/DTD/sodipodi-0.dtd"
   xmlns:inkscape="http://www.inkscape.org/namespaces/inkscape"
   width="210mm"
   height="297mm"
   viewBox="0 0 210 297"
   version="1.1"
   id="svg823"
   inkscape:version="0.92.5 (2060ec1f9f, 2020-04-08)"
   sodipodi:docname="elephant-pink-circle.svg">
  <defs
     id="defs817" />
  <sodipodi:namedview
     id="base"
     pagecolor="#ffffff"
     bordercolor="#666666"
     borderopacity="1.0"
     inkscape:pageopacity="0.0"
     inkscape:pageshadow="2"
     inkscape:zoom="1"
     inkscape:cx="282.78025"
     inkscape:cy="728.42853"
     inkscape:document-units="mm"
     inkscape:current-layer="layer1"
     showgrid="false"
     inkscape:window-width="1920"
     inkscape:window-height="1016"
     inkscape:window-x="0"
     inkscape:window-y="27"
     inkscape:window-maximized="1" />
  <metadata
     id="metadata820">
    <rdf:RDF>
      <cc:Work
         rdf:about="">
        <dc:format>image/svg+xml</dc:format>
        <dc:type
           rdf:resource="http://purl.org/dc/dcmitype/StillImage" />
        <dc:title></dc:title>
      </cc:Work>
    </rdf:RDF>
  </metadata>
  <g
     inkscape:label="Camada 1"
     inkscape:groupmode="layer"
     id="layer1">
    <circle
       style="opacity:1;fill:#cc3363;fill-opacity:1;stroke:#040000;stroke-width:0.03290471;stroke-linecap:butt;stroke-linejoin:miter;stroke-miterlimit:4;stroke-dasharray:none;stroke-opacity:1;paint-order:normal"
       id="path1397"
       cx="72.902191"
       cy="108.64793"
       r="57.113182" />
    <g
       transform="matrix(3.8134258,0,0,3.8134258,42.860037,60.37144)"
       id="g874">
      <path
         sodipodi:nodetypes="ccccccszzccsszssssc"
         style="fill:#99aab5"
         inkscape:connector-curvature="0"
         id="path2"
         d="m 20.523,5.126 c -0.391,0 -0.763,0.017 -1.139,0.031 C 19.371,5.147 19.362,5.136 19.349,5.126 14.655,1.605 4.091,2.779 1.745,6.3 c -3.255,4.883 -1.174,22.3 0,24.646 1.173,2.35 3.7376456,2.276635 4.9116456,1.105635 C 7.2472945,31.459979 7.5083559,30.38461 7.2669642,30.289953 6.9702026,30.173584 6.0770434,31.269585 5.7727335,31.352044 5.4684236,31.434503 4.9335509,31.558005 3.9375883,29.734551 2.9416256,27.911097 4.3021119,24.226108 6.695,21.304 c 0.028,0.168 0.068,0.322 0.1,0.486 1.0657537,1.892675 1.6776594,5.876573 2.9364264,5.735484 0.1727252,-0.01936 0.3332166,-0.04525 0.5151206,-0.07515 0.593555,-0.09757 1.112381,-0.198529 1.898168,-0.431553 0.785787,-0.233024 1.813342,-0.631364 2.317093,-0.895725 0.750263,-0.393727 2.739849,-1.338106 4.582329,-3.467529 0.365034,-0.421883 2.074515,-2.211652 3.117076,-5.474308 0.118495,-0.370825 0.226578,-0.727346 0.320901,-1.137363 C 23.256246,12.678734 23.343153,7.8050777 20.523,5.126 Z" />
      <path
         sodipodi:nodetypes="cssscsc"
         style="fill:#66757f"
         inkscape:connector-curvature="0"
         id="path4"
         d="m 11.669213,18.494923 c 0,0 2.430564,-4.216096 2.881339,-9.146391 0.45185,-4.94206 0.810022,-4.5608089 0.986132,-4.7098189 1.44731,-1.2245939 1.090635,-0.957874 1.916885,-1.5211766 0.624631,-0.4258472 7.59058,-5.7616976 5.222914,8.6464105 -0.150872,1.210362 -0.610788,2.203103 -1.262376,3.017348 -2.931984,3.6639 -9.744894,3.713628 -9.744894,3.713628 z" />
      <path
         sodipodi:nodetypes="csssccc"
         style="fill:#ffffff;fill-opacity:1;stroke-width:0.2827701"
         inkscape:connector-curvature="0"
         id="path4-3"
         d="m 2.9671555,20.30313 c 0,0 0.7989248,0.610212 2.7965338,-0.472076 2.0023756,-1.084873 2.7206062,-1.713327 2.7206062,-1.713327 0.1700043,-0.121008 1.8539795,0.837136 1.8903715,1.015536 0.0763,0.374019 -0.191591,-0.63077 -3.4547328,1.08464 -2.7152013,1.427435 -3.9527782,0.08523 -3.9527782,0.08523 z" />
      <circle
         style="fill:#292f33"
         cx="8"
         cy="10.75"
         r="1.5"
         id="circle821-3" />
    </g>
  </g>
</svg>
